<svg width="58" height="78" viewBox="0 0 58 78" fill="none" xmlns="http://www.w3.org/2000/svg">
<path d="M32.3138 59.4381H54.9424V73H3.28516C3.28516 73 25.99 47.7809 33.7614 39.1714C39.0185 33.3809 40.1614 29.1905 40.1614 26.219C40.1614 20.2762 35.4376 16.4667 29.6471 16.4667C23.5519 16.4667 19.1328 21.1905 19.1328 26.219C19.1328 29.7238 21.2662 32.9238 24.4662 35.0571L20.4281 48.2381C11.1328 44.8095 4.50426 36.2 4.50426 26.219C4.50426 13.1905 15.7805 3.66675 29.6471 3.66675C43.5138 3.66675 54.79 13.1905 54.79 26.219C54.79 30.9429 53.2662 36.5048 47.3995 43.6667C44.5043 47.2476 38.2566 53.5714 32.3138 59.4381Z" fill="white"/>
</svg>
