<svg width="138" height="24" viewBox="0 0 138 24" fill="none" xmlns="http://www.w3.org/2000/svg">
<path fill-rule="evenodd" clip-rule="evenodd" d="M125.311 20.7891C123.572 20.7891 122.005 20.324 120.616 19.3939C119.228 18.4573 118.144 17.2022 117.37 15.6092C116.597 14.023 116.206 12.2899 116.206 10.3977C116.206 8.51828 116.603 6.77885 117.383 5.18609C118.164 3.59332 119.241 2.3318 120.623 1.40163C122.005 0.465137 123.559 0 125.278 0C126.647 0 127.844 0.210215 128.868 0.624544C129.893 1.03855 130.707 1.65023 131.302 2.4464V0.64995H138V20.12H131.282V18.368C130.687 19.1516 129.88 19.7505 128.862 20.1646C127.837 20.5852 126.66 20.7891 125.311 20.7891ZM97.5675 11.9201L98.2266 5.77814L99.7864 6.05138L98.8528 0.649731H74.0383V12.3345C74.0383 13.0353 73.9064 13.5514 73.6421 13.8826C73.3775 14.2204 73.0004 14.3923 72.5111 14.3923H71.4797V20.12H72.9544C74.3358 20.12 75.6454 19.8649 76.8883 19.3617C78.1249 18.8585 79.1432 18.0494 79.93 16.9342C80.7168 15.8261 81.1068 14.4116 81.1068 12.6911V6.34544H86.8465V20.12H88.5763L90.5172 7.39784L94.6276 8.19379L96.1267 5.35618L94.5652 5.07128L98.8528 0.649731H101.043V6.73426H101.996L105.791 0.649731H114.102L107.649 9.63315L114.724 20.12H106.293L102.459 13.513H101.043V20.12C96.8877 20.12 92.732 20.12 88.5763 20.12L93.5066 11.1432L97.5675 11.9201ZM24.4856 14.4816C25.2463 13.526 25.8743 12.3154 26.3571 10.8627C26.8397 9.40396 27.1702 7.62627 27.3554 5.52366L27.7587 0.64995H44.6727V14.4816H46.5108V24H39.4821V20.12H29.9872V24H22.9782V14.4816H24.4856ZM37.6372 6.30761H34.0536L33.9015 7.85578C33.7559 9.3019 33.4915 10.538 33.108 11.5701C32.7179 12.6022 32.2155 13.5769 31.5939 14.4816H37.6372V6.30761ZM10.6786 20.7762C8.59569 20.7762 6.75111 20.3047 5.12435 19.3746C3.5045 18.438 2.24811 17.1829 1.34884 15.5966C0.449804 14.0101 0 12.2772 0 10.3977C0 8.51828 0.449804 6.78529 1.34884 5.19895C2.24811 3.6124 3.5045 2.34466 5.12435 1.40806C6.75111 0.471568 8.59569 0 10.6786 0C12.5764 0 14.269 0.363081 15.7634 1.10222C17.2509 1.83482 18.4744 2.83521 19.433 4.10294C20.3853 5.37722 21.0266 6.8108 21.3506 8.41633H14.1831C13.6275 7.00826 12.4706 6.30761 10.7182 6.30761C10.057 6.30761 9.44211 6.46026 8.87361 6.77264C8.30488 7.0847 7.85508 7.5434 7.51809 8.15497C7.18088 8.76676 7.01545 9.50569 7.01545 10.3786C7.01545 11.2578 7.18756 12.0096 7.53122 12.6278C7.86843 13.2393 8.32468 13.7108 8.88673 14.023C9.44879 14.3414 10.057 14.5006 10.7182 14.5006C11.5579 14.5006 12.272 14.3095 12.8738 13.9335C13.4754 13.5514 13.9118 12.9014 14.1831 11.9842H21.3506C21.0531 13.6724 20.4315 15.1888 19.4793 16.5203C18.5338 17.8519 17.3039 18.8904 15.7898 19.6421C14.2823 20.394 12.5764 20.7762 10.6786 20.7762ZM69.6803 10.3977C69.6803 10.9075 69.6341 11.4552 69.5414 12.0352H55.4445C55.8278 14.0165 57.0249 15.004 59.0282 15.004C60.5093 15.004 61.4481 14.5199 61.8317 13.5514H69.33C69.0587 14.7556 68.4769 15.9087 67.5776 17.0108C66.6782 18.1133 65.5079 19.0179 64.06 19.7186C62.6185 20.4195 60.9853 20.7762 59.1605 20.7762C57.0577 20.7762 55.1799 20.3047 53.5334 19.3746C51.8871 18.438 50.611 17.1829 49.6986 15.5966C48.7859 14.0101 48.3297 12.2772 48.3297 10.3977C48.3297 8.50541 48.7859 6.76621 49.6986 5.17965C50.611 3.59332 51.8871 2.3318 53.527 1.40163C55.1666 0.465137 57.0445 0 59.1605 0C61.2763 0 63.1342 0.46514 64.7278 1.38877C66.3279 2.31915 67.5511 3.56791 68.4042 5.14792C69.257 6.72783 69.6803 8.48001 69.6803 10.3977ZM62.4334 7.79832C62.3475 7.07826 61.997 6.49864 61.3888 6.05258C60.7802 5.61306 60.0662 5.39009 59.2398 5.39009C58.4397 5.39009 57.7255 5.58112 57.1106 5.95063C56.4893 6.32658 56.0197 6.94469 55.6958 7.79832H62.4334ZM127.097 14.5199C127.831 14.5199 128.498 14.3414 129.093 13.9784C129.688 13.6151 130.151 13.1183 130.489 12.4873C130.819 11.8502 130.991 11.1496 130.991 10.3786C130.991 9.63315 130.819 8.94503 130.475 8.31438C130.132 7.68373 129.669 7.18675 129.073 6.82367C128.478 6.45405 127.824 6.26923 127.116 6.26923C126.396 6.26923 125.734 6.42864 125.153 6.74713C124.564 7.06573 124.095 7.53075 123.744 8.14876C123.394 8.76033 123.222 9.50569 123.222 10.3786C123.222 11.2961 123.4 12.0669 123.757 12.6913C124.108 13.3158 124.584 13.7745 125.166 14.0739C125.754 14.3734 126.402 14.5199 127.097 14.5199Z" fill="white"/>
</svg>
