<svg width="65" height="106" viewBox="0 0 65 106" fill="none" xmlns="http://www.w3.org/2000/svg">
<g clip-path="url(#clip0_518_2)">
<path d="M26.24 84.272C26.24 78.4693 26.9227 73.8613 28.288 70.448C29.7387 66.9493 31.4027 64.3893 33.28 62.768C35.2427 61.0613 37.7173 59.44 40.704 57.904C42.496 56.9653 43.8613 56.1547 44.8 55.472C45.824 54.704 46.6347 53.8507 47.232 52.912C47.9147 51.888 48.256 50.992 48.256 50.224C48.256 49.0293 47.4453 48.432 45.824 48.432C44.3733 48.5173 43.008 49.0293 41.728 49.968C40.448 50.8213 39.04 52.016 37.504 53.552C33.3227 57.7333 29.3973 59.824 25.728 59.824C24.2773 59.824 22.9973 59.312 21.888 58.288C20.7787 57.264 20.224 55.9413 20.224 54.32C20.224 51.1627 22.3147 48.0907 26.496 45.104C28.9707 43.3973 32.256 41.4773 36.352 39.344C40.448 37.2107 43.6907 35.376 46.08 33.84C48.4693 32.2187 50.4747 30.2133 52.096 27.824C53.8027 25.4347 54.656 22.6187 54.656 19.376C54.5707 14.256 52.6507 10.5013 48.896 8.112C45.2267 5.72266 40.7467 4.52799 35.456 4.52799C32.9813 4.52799 30.848 4.69866 29.056 5.03999C23.68 5.97866 19.4987 8.19733 16.512 11.696C13.5253 15.1093 11.3493 19.504 9.984 24.88L5.248 17.456C8.40533 13.616 11.6907 10.5867 15.104 8.368C18.5173 6.14933 23.04 4.61333 28.672 3.75999C30.8053 3.41866 33.3227 3.24799 36.224 3.24799C43.3067 3.24799 49.1947 4.82666 53.888 7.98399C58.6667 11.056 61.0987 16.1333 61.184 23.216C61.184 26.9707 60.032 30.2133 57.728 32.944C55.5093 35.5893 52.8213 37.7227 49.664 39.344C46.5067 40.88 42.5387 42.544 37.76 44.336C32.896 46.128 29.7387 47.4933 28.288 48.432C25.3867 50.3093 23.936 52.272 23.936 54.32C23.936 55.088 24.1493 55.7707 24.576 56.368C25.0027 56.88 25.5147 57.2213 26.112 57.392C26.368 57.4773 26.7947 57.52 27.392 57.52C29.696 57.52 32.64 55.728 36.224 52.144C38.1867 50.1813 40.0213 48.6027 41.728 47.408C43.4347 46.2133 45.2267 45.616 47.104 45.616C48.2133 45.616 49.024 45.9573 49.536 46.64C50.1333 47.2373 50.432 48.048 50.432 49.072C50.432 51.4613 49.3227 53.7653 47.104 55.984C46.08 56.9227 44.6293 58.0747 42.752 59.44C40.6187 61.0613 38.9547 62.5973 37.76 64.048C36.6507 65.4133 35.712 67.6747 34.944 70.832C34.2613 73.9893 33.92 78.4693 33.92 84.272H26.24ZM27.904 104.24C26.368 104.24 25.1733 103.856 24.32 103.088C23.4667 102.32 23.04 101.296 23.04 100.016C23.04 97.968 23.7653 96.176 25.216 94.64C26.752 93.104 28.672 92.336 30.976 92.336C32.512 92.336 33.664 92.72 34.432 93.488C35.2853 94.256 35.712 95.28 35.712 96.56C35.712 98.608 34.944 100.4 33.408 101.936C31.9573 103.472 30.1227 104.24 27.904 104.24Z" fill="#124BF6"/>
</g>
<defs>
<clipPath id="clip0_518_2">
<rect width="65" height="106" fill="white"/>
</clipPath>
</defs>
</svg>
