<svg width="341" height="232" viewBox="0 0 341 232" fill="none" xmlns="http://www.w3.org/2000/svg">
<path d="M118.626 165.51C115.76 158.101 116.096 156.787 121.875 152.174C122.403 151.756 122.931 151.35 123.41 150.884C127.535 146.845 126.192 137.094 121.24 135.027C125.449 140.476 123.998 147.849 117.055 151.183C115.101 144.718 116.72 138.6 121.288 135.111C116.636 134.322 114.31 135.78 113.698 140.189C113.266 143.356 113.051 146.582 113.039 149.784C113.027 155.066 111.024 157.958 105.173 160.061C104.801 154.134 104.765 151.923 104.573 148.757C104.501 147.55 103.818 146.367 102.667 145.985C100.341 145.208 96.7197 145.387 94.5135 146.654C94.1657 146.857 93.7581 147 93.4943 147.275C89.3816 151.684 86.2641 156.608 85.209 162.702C84.9572 164.16 84.3576 165.546 83.3145 166.597C70.4129 179.634 57.5592 192.731 44.3458 205.445C38.7343 210.846 32.4874 215.686 26.1445 220.227C22.991 222.485 18.7464 221.696 16.6481 218.434C13.3987 213.356 10.1014 207.739 9.03423 201.956C7.11577 191.5 6.09659 180.757 6.02465 170.122C5.85679 146.235 9.09418 122.695 16.0965 99.7879C24.1181 73.5349 34.8854 48.6083 52.1036 26.8603C59.034 18.1133 66.6959 10.1071 76.396 4.34749C81.5879 1.26453 85.2809 1.96955 88.3624 6.94053C90.3768 10.1908 92.5471 13.7039 93.2065 17.3724C95.2689 28.7483 97.3672 40.1959 98.1585 51.7032C99.6573 73.4035 98.5063 95.032 93.7581 116.374C93.5662 117.222 93.842 117.915 94.8372 118.322C96.2401 118.752 96.8396 118.513 97.1633 117.784C98.2904 115.262 99.5254 112.622 99.8012 109.933C102.235 86.8825 103.518 63.7961 100.581 40.6858C99.2497 30.23 97.8228 19.7862 92.631 10.3461C86.2881 -1.20901 77.7749 -3.08508 67.2954 4.71793C66.9716 4.95691 66.7078 5.2676 66.3841 5.50659C52.5472 16.297 42.3195 30.0986 33.7703 45.2147C10.7369 85.9265 -0.282277 129.757 0.00549147 176.42C0.0774336 188.393 0.760885 200.355 5.44911 211.671C10.2572 223.274 22.7632 226.966 33.3866 220.215C38.4346 217 43.1108 213.033 47.4273 208.875C64.9812 191.966 82.3313 174.854 99.7772 157.838C103.53 154.074 105.509 160.419 100.221 165.51C90.5447 175.631 80.2929 185.203 70.4488 195.169C66.8637 198.801 63.8421 202.983 60.5688 206.915C60.7726 207.309 60.9645 207.692 61.1683 208.086C64.4537 208.301 67.751 208.516 71.0364 208.731C69.0699 208.229 67.1035 207.727 64.5376 207.07C75.7845 193.436 88.5063 181.51 102.367 168.82C103.854 189.397 105.269 209.054 106.684 228.711C106.084 229.105 105.497 229.499 104.909 229.894C102.643 227.169 100.605 224.218 98.0746 221.78C90.4847 214.491 81.7078 209.46 70.9404 208.636C78.8661 211.002 86.5279 213.893 92.7389 219.629C96.372 222.987 99.9691 226.393 103.722 229.607C104.777 230.515 106.36 230.826 107.823 231.459C107.823 227.026 107.955 223.31 107.799 219.617C107.115 203.736 106.42 187.855 105.557 171.975C105.221 165.856 107.391 162.427 114.142 159.607C114.298 160.802 114.405 161.985 114.609 163.156C114.813 164.339 115.017 165.534 115.401 166.657C116.348 169.394 118.806 170.242 120.64 168.246C125.245 163.24 129.657 158.077 134.154 152.963C126.372 153.823 123.494 160.886 118.626 165.51ZM90.077 160.408C89.3456 159.87 89.3816 158.603 89.8972 157.862C91.9116 155.03 93.4223 152.174 95.9523 149.82C99.1418 146.857 100.245 153.238 100.245 153.238C94.8252 156.727 95.4967 156.93 90.077 160.408Z" fill="#124BF6"/>
<path d="M331.42 70.5351C317.727 74.598 303.818 78.3979 298.003 93.8007C297.727 94.5297 296.025 95.3183 295.161 95.163C284.574 93.2391 274.382 95.1869 264.382 98.3415C242.811 105.153 221.804 113.41 201.541 123.519C192.464 128.048 183.579 133.318 173.003 133.736C171.373 129.613 168.579 126.232 168.231 126.853C168.099 127.08 168.147 127.677 168.255 128.359C166.637 127.247 164.898 126.506 163.627 126.602C162.656 126.674 161.397 127.092 160.821 127.797C157.596 131.776 155.929 136.413 156.421 141.527C156.817 145.673 161.241 147.43 164.466 144.717C166.792 142.758 168.615 140.212 170.749 138.014C171.373 137.369 172.248 136.771 173.111 136.556C179.526 134.895 186.265 134.094 192.332 131.621C215.497 122.169 238.375 112.012 261.492 102.464C272.38 97.9711 283.89 95.7007 295.689 97.3736C299.526 97.9114 301.408 97.2183 302.775 93.8007C305.905 85.938 311.54 80.501 319.394 77.3344C326.42 74.5024 333.47 71.6942 340.497 68.8742C340.557 68.7666 340.629 68.671 340.689 68.5635C337.595 69.2087 334.442 69.6389 331.42 70.5351ZM159.43 143.797C160.09 137.691 160.546 132.23 165.605 128.371C168.879 135.003 167.032 139.914 159.43 143.797Z" fill="#124BF6"/>
<path d="M136.6 138.038C138.363 144.443 140.018 150.884 141.876 157.265C142.284 158.663 143.363 159.87 144.13 161.16C144.574 160.945 145.03 160.742 145.473 160.527C144.49 156.99 143.447 153.465 142.524 149.904C140.953 143.857 139.634 137.739 137.799 131.777C137.308 130.199 134.49 127.845 134.094 128.359C132.715 129.829 131.744 130.247 131.996 133.987C132.775 140.309 133.567 146.618 134.358 152.939L134.262 152.832C134.226 152.879 134.178 152.927 134.142 152.963C134.19 152.963 134.238 152.951 134.286 152.939C136.756 163.144 139.346 173.325 141.624 183.566C142.512 187.521 142.823 191.667 139.778 194.631C135.245 191.082 130.941 187.724 126.349 184.127C128.303 183.685 129.61 183.374 130.929 183.076C130.881 182.884 130.833 182.681 130.773 182.49C128.279 182.693 125.785 182.908 123.291 183.111C123.147 183.47 123.003 183.828 122.859 184.175C124.586 185.406 126.313 186.637 128.051 187.855C130.185 189.361 132.296 190.891 134.478 192.336C136.564 193.723 138.723 195.013 140.857 196.352C141.948 193.914 143.123 191.488 144.082 189.003C144.346 188.333 144.07 187.413 143.914 186.637C141.408 174.293 138.771 161.973 136.396 149.605C135.473 144.801 135.09 139.89 134.454 135.027C134.778 134.967 135.114 134.895 135.437 134.836C135.833 135.911 136.301 136.963 136.6 138.038Z" fill="#124BF6"/>
<path d="M151.597 145.28C151.873 143.105 152.196 140.942 152.604 138.791C153.06 136.389 152.364 135.362 149.834 135.111C149.451 137.166 149.091 139.114 148.671 141.432C147.364 137.417 146.213 133.892 145.074 130.379C144.679 130.51 144.283 130.642 143.887 130.773C143.815 131.132 143.623 131.514 143.683 131.849C145.17 139.783 146.633 147.73 148.252 155.64C148.467 156.692 149.451 157.588 150.086 158.556C150.961 155.724 150.77 153.226 150.997 150.765C151.093 149.761 151.189 148.745 151.297 147.741C153.503 149.355 158.108 151.422 164.834 147.957C164.846 147.957 156.081 149.797 151.597 145.28Z" fill="#124BF6"/>
</svg>
