<svg width="35" height="30" viewBox="0 0 35 30" fill="none" xmlns="http://www.w3.org/2000/svg">
<g clip-path="url(#clip0_534_19)">
<path fill-rule="evenodd" clip-rule="evenodd" d="M2.39642 12.8309C11.7897 8.6457 18.043 5.8648 21.183 4.5156C30.1201 0.6884 31.9987 0.0275 33.2065 0C33.4748 0 34.0653 0.0551 34.4678 0.3855C34.7899 0.6608 34.8704 1.0188 34.9241 1.2941C34.9778 1.5694 35.0314 2.1477 34.9778 2.5882C34.4947 7.8197 32.4013 20.513 31.3278 26.3502C30.8715 28.8283 29.9859 29.6543 29.1271 29.7369C27.2484 29.9021 25.826 28.4703 24.0279 27.2588C21.183 25.359 19.5996 24.175 16.8353 22.3027C13.6415 20.155 15.7081 18.9711 17.533 17.0437C18.0161 16.548 26.2554 8.8385 26.4164 8.1501C26.4433 8.0675 26.4433 7.7371 26.2554 7.5719C26.0675 7.4067 25.7992 7.4618 25.5845 7.5168C25.2892 7.5719 20.7805 10.6557 12.0044 16.7408C10.7162 17.6494 9.56222 18.09 8.51552 18.0624C7.36142 18.0349 5.16072 17.4016 3.49682 16.8509C1.48392 16.1901 -0.126379 15.8322 0.00782086 14.6757C0.0883209 14.07 0.893522 13.4642 2.39642 12.8309Z" fill="white"/>
</g>
<defs>
<clipPath id="clip0_534_19">
<rect width="35" height="29.75" fill="white"/>
</clipPath>
</defs>
</svg>
