<svg width="35" height="29" viewBox="0 0 35 29" fill="none" xmlns="http://www.w3.org/2000/svg">
<g clip-path="url(#clip0_534_20)">
<path fill-rule="evenodd" clip-rule="evenodd" d="M31.1319 2.73334C32.6396 3.13659 33.8157 4.31721 34.2235 5.82492C35.2898 10.1263 35.2204 18.2585 34.2459 22.627C33.8426 24.1347 32.662 25.3109 31.1543 25.7186C26.8978 26.7715 7.83297 26.6416 3.82287 25.7186C2.31516 25.3154 1.13901 24.1347 0.73128 22.627C-0.274606 18.5273 -0.205158 9.8574 0.70888 5.84733C1.11213 4.33962 2.29276 3.16347 3.80046 2.75574C9.49078 1.56839 29.1067 1.95148 31.1319 2.73334ZM14.1093 8.9856L23.2497 14.2278L14.1093 19.4701V8.9856Z" fill="white"/>
</g>
<defs>
<clipPath id="clip0_534_20">
<rect width="35" height="29" fill="white"/>
</clipPath>
</defs>
</svg>
